<?xml version="1.0" encoding="UTF-8" standalone="no"?>
<!-- Created with Inkscape (http://www.inkscape.org/) -->

<svg
   xmlns:dc="http://purl.org/dc/elements/1.1/"
   xmlns:cc="http://creativecommons.org/ns#"
   xmlns:rdf="http://www.w3.org/1999/02/22-rdf-syntax-ns#"
   xmlns:svg="http://www.w3.org/2000/svg"
   xmlns="http://www.w3.org/2000/svg"
   xmlns:sodipodi="http://sodipodi.sourceforge.net/DTD/sodipodi-0.dtd"
   xmlns:inkscape="http://www.inkscape.org/namespaces/inkscape"
   version="1.1"
   id="svg2"
   xml:space="preserve"
   width="680"
   height="320.00003"
   viewBox="0 0 680 320.00003"
   sodipodi:docname="white.svg"
   inkscape:version="0.92.4 (5da689c313, 2019-01-14)"><metadata
     id="metadata8"><rdf:RDF><cc:Work
         rdf:about=""><dc:format>image/svg+xml</dc:format><dc:type
           rdf:resource="http://purl.org/dc/dcmitype/StillImage" /><dc:title></dc:title></cc:Work></rdf:RDF></metadata><defs
     id="defs6" /><sodipodi:namedview
     pagecolor="#ffffff"
     bordercolor="#666666"
     borderopacity="1"
     objecttolerance="10"
     gridtolerance="10"
     guidetolerance="10"
     inkscape:pageopacity="0"
     inkscape:pageshadow="2"
     inkscape:window-width="640"
     inkscape:window-height="480"
     id="namedview4"
     showgrid="false"
     inkscape:zoom="0.55882353"
     inkscape:cx="340"
     inkscape:cy="160.00002"
     inkscape:window-x="0"
     inkscape:window-y="0"
     inkscape:window-maximized="0"
     inkscape:current-layer="g10" /><g
     id="g10"
     inkscape:groupmode="layer"
     inkscape:label="white"
     transform="matrix(1.3333333,0,0,1.3333333,0,8.0000005e-6)"><g
       id="g12"><path
         d="m 86.148,156.461 c 21.184,0 39.555,-11.023 48.852,-27.887 l -28.316,-16.211 c -3.461,7.567 -11.457,12.106 -20.969,12.106 -14.051,0 -24.426,-10.16 -24.426,-25.074 0,-14.918 10.375,-25.079 24.426,-25.079 9.512,0 17.293,4.543 20.969,12.106 L 135,69.996 C 125.703,53.352 107.113,42.324 86.148,42.324 c -32.859,0 -57.285,24.86 -57.285,57.071 0,32.207 24.426,57.066 57.285,57.066 z"
         style="fill:#ffffff;fill-opacity:1;fill-rule:nonzero;stroke:none"
         id="path14"
         inkscape:connector-curvature="0" /><path
         d="m 213.086,98.27 c 5.809,-4.313 8.809,-10.872 8.809,-18.93 0,-15.559 -11.059,-26.805 -31.864,-26.805 h -46.855 v 93.715 h 50.605 c 20.805,0 31.864,-11.246 31.864,-26.801 0,-9.558 -4.5,-16.871 -12.559,-21.179 z M 187.031,75.027 c 5.063,0 8.25,2.063 8.25,6.746 0,4.5 -3.187,6.375 -8.25,6.375 H 169.414 V 75.027 Z m 3,47.981 h -20.617 v -13.492 h 20.617 c 4.875,0 8.246,2.058 8.246,6.558 0,4.688 -3.371,6.934 -8.246,6.934 z"
         style="fill:#ffffff;fill-opacity:1;fill-rule:nonzero;stroke:none"
         id="path16"
         inkscape:connector-curvature="0" /><path
         d="m 261.934,110.641 h 66.535 c 0.75,-3.563 1.125,-7.313 1.125,-11.246 0,-28.305 -20.242,-49.481 -47.606,-49.481 -29.613,0 -49.855,21.551 -49.855,49.481 0,27.925 19.867,49.48 51.914,49.48 17.808,0 31.676,-6.562 40.859,-19.305 l -22.488,-12.933 c -3.75,4.125 -10.309,7.121 -17.996,7.121 -10.309,0 -18.93,-3.371 -22.488,-13.117 z m -0.563,-20.993 c 2.621,-9.558 9.746,-14.808 20.43,-14.808 8.433,0 16.867,3.937 19.867,14.808 z"
         style="fill:#ffffff;fill-opacity:1;fill-rule:nonzero;stroke:none"
         id="path18"
         inkscape:connector-curvature="0" /><path
         d="m 417.785,52.535 h -84.34 v 26.992 h 28.301 v 66.723 h 28.113 V 79.527 h 27.926 z"
         style="fill:#ffffff;fill-opacity:1;fill-rule:nonzero;stroke:none"
         id="path20"
         inkscape:connector-curvature="0" /><path
         d="m 51.379,202.5 v -15.559 h 6.199 V 182.5 H 40.777 v 4.441 h 6.161 V 202.5 Z"
         style="fill:#ffffff;fill-opacity:1;fill-rule:nonzero;stroke:none"
         id="path22"
         inkscape:connector-curvature="0" /><path
         d="m 69.797,202.5 c 1.641,-0.039 3.082,-0.68 4.242,-1.84 1.16,-1.16 1.719,-2.558 1.719,-4.199 0,-2.121 -1.32,-4.039 -3.403,-4.801 1.442,-0.64 2.282,-2.082 2.282,-3.801 0,-1.48 -0.52,-2.718 -1.559,-3.8 -1.082,-1.039 -2.32,-1.559 -3.762,-1.559 H 58.758 v 20 z m -6.598,-16.281 h 4.918 c 2.762,-0.16 2.762,4.16 0,4.082 h -4.918 z m 0,7.922 h 5.52 c 1.597,0 2.679,1.078 2.679,2.32 0,1.277 -1.121,2.359 -2.722,2.359 h -5.477 z"
         style="fill:#ffffff;fill-opacity:1;fill-rule:nonzero;stroke:none"
         id="path24"
         inkscape:connector-curvature="0" /><path
         d="m 77.043,192.461 c 0,2.879 1,5.32 3.039,7.32 2,2.039 4.441,3.039 7.32,3.039 2.84,0 5.282,-1 7.282,-3.039 2,-2 3,-4.441 3,-7.32 0,-2.84 -1,-5.281 -3,-7.281 -2,-2 -4.442,-3 -7.282,-3 -2.879,0 -5.32,1 -7.32,3 -2.039,2 -3.039,4.441 -3.039,7.281 z m 6.199,-4.121 c 1.121,-1.121 2.52,-1.68 4.16,-1.68 1.602,0 2.961,0.559 4.121,1.68 1.122,1.121 1.68,2.48 1.68,4.121 0,1.641 -0.558,3 -1.68,4.117 -1.16,1.16 -2.519,1.723 -4.121,1.723 -1.64,0 -3.039,-0.563 -4.16,-1.723 -1.16,-1.117 -1.719,-2.476 -1.719,-4.117 0,-1.641 0.559,-3 1.719,-4.121 z"
         style="fill:#ffffff;fill-opacity:1;fill-rule:nonzero;stroke:none"
         id="path26"
         inkscape:connector-curvature="0" /><path
         d="m 112.453,179.379 c 1.238,-0.598 2.121,-1.359 2.602,-2.277 l -3,-2.403 c -2.403,2.403 -4.961,2.403 -7.364,0 l -3.039,2.403 c 1.481,2.796 7.2,4.277 10.801,2.277 z m 0.121,3.121 -8.562,12.199 V 182.5 h -4.438 v 20 h 4.438 l 8.562,-12.602 V 202.5 h 4.438 v -20 z"
         style="fill:#ffffff;fill-opacity:1;fill-rule:nonzero;stroke:none"
         id="path28"
         inkscape:connector-curvature="0" /><path
         d="m 134.203,202.5 v -12.359 l 5.242,12.359 h 3 l 5.278,-12.359 V 202.5 h 4.441 v -20 h -5.879 l -5.32,12.641 -5.36,-12.641 h -5.843 v 20 z"
         style="fill:#ffffff;fill-opacity:1;fill-rule:nonzero;stroke:none"
         id="path30"
         inkscape:connector-curvature="0" /><path
         d="m 164.184,182.18 c -2.84,0 -5.239,1 -7.282,3.039 -2.039,2.043 -3.039,4.441 -3.039,7.281 0,2.84 1,5.238 3.039,7.281 2.043,2.039 4.442,3.039 7.282,3.039 2.441,0 4.519,-0.8 6.238,-2.359 v 2.039 h 4.121 v -20 h -4.121 v 2.078 c -1.719,-1.598 -3.797,-2.398 -6.238,-2.398 z m 4.199,6.121 c 1.121,1.16 1.68,2.558 1.68,4.199 0,1.641 -0.559,3.039 -1.68,4.199 -1.16,1.16 -2.559,1.723 -4.199,1.723 -1.641,0 -3.039,-0.563 -4.161,-1.723 -1.16,-1.16 -1.718,-2.558 -1.718,-4.199 0,-1.641 0.558,-3.039 1.718,-4.199 1.122,-1.16 2.52,-1.723 4.161,-1.723 1.64,0 3.039,0.563 4.199,1.723 z"
         style="fill:#ffffff;fill-opacity:1;fill-rule:nonzero;stroke:none"
         id="path32"
         inkscape:connector-curvature="0" /><path
         d="m 183.465,182.461 c -1.918,0 -3.52,0.68 -4.84,2 -1.32,1.32 -1.961,2.918 -1.961,4.801 0,2.879 1.723,5.359 4.281,6.359 l -5,6.879 h 5.16 l 4.321,-6.398 h 3.078 v 6.359 h 4.48 v -20 z m 0,9.199 c -1.399,0 -2.399,-1.082 -2.399,-2.398 0,-1.282 1,-2.364 2.399,-2.364 h 5.039 v 4.762 z"
         style="fill:#ffffff;fill-opacity:1;fill-rule:nonzero;stroke:none"
         id="path34"
         inkscape:connector-curvature="0" /><path
         d="m 194.969,202.5 h 4.48 v -8.602 l 5.52,8.602 h 5.039 l -6.559,-10.16 6.321,-9.84 h -4.883 l -5.438,8.359 V 182.5 h -4.48 z"
         style="fill:#ffffff;fill-opacity:1;fill-rule:nonzero;stroke:none"
         id="path36"
         inkscape:connector-curvature="0" /><path
         d="m 232.023,202.5 c 1.641,-0.039 3.079,-0.68 4.239,-1.84 1.16,-1.16 1.718,-2.558 1.718,-4.199 0,-2.121 -1.316,-4.039 -3.398,-4.801 1.441,-0.64 2.281,-2.082 2.281,-3.801 0,-1.48 -0.519,-2.718 -1.562,-3.8 -1.078,-1.039 -2.321,-1.559 -3.758,-1.559 H 220.98 v 20 z m -6.601,-16.281 h 4.922 c 2.758,-0.16 2.758,4.16 0,4.082 h -4.922 z m 0,7.922 h 5.519 c 1.602,0 2.68,1.078 2.68,2.32 0,1.277 -1.117,2.359 -2.719,2.359 h -5.48 z"
         style="fill:#ffffff;fill-opacity:1;fill-rule:nonzero;stroke:none"
         id="path38"
         inkscape:connector-curvature="0" /><path
         d="m 254.441,202.5 v -12.359 l 5.239,12.359 h 3 l 5.281,-12.359 V 202.5 h 4.441 v -20 H 266.52 L 261.199,195.141 255.84,182.5 H 250 v 20 z"
         style="fill:#ffffff;fill-opacity:1;fill-rule:nonzero;stroke:none"
         id="path40"
         inkscape:connector-curvature="0" /><path
         d="m 274.383,192.461 c 0,2.879 1,5.32 3.039,7.32 2,2.039 4.437,3.039 7.32,3.039 2.84,0 5.278,-1 7.278,-3.039 2,-2 3,-4.441 3,-7.32 0,-2.84 -1,-5.281 -3,-7.281 -2,-2 -4.438,-3 -7.278,-3 -2.883,0 -5.32,1 -7.32,3 -2.039,2 -3.039,4.441 -3.039,7.281 z m 6.199,-4.121 c 1.117,-1.121 2.52,-1.68 4.16,-1.68 1.598,0 2.957,0.559 4.117,1.68 1.121,1.121 1.684,2.48 1.684,4.121 0,1.641 -0.563,3 -1.684,4.117 -1.16,1.16 -2.519,1.723 -4.117,1.723 -1.64,0 -3.043,-0.563 -4.16,-1.723 -1.16,-1.117 -1.723,-2.476 -1.723,-4.117 0,-1.641 0.563,-3 1.723,-4.121 z"
         style="fill:#ffffff;fill-opacity:1;fill-rule:nonzero;stroke:none"
         id="path42"
         inkscape:connector-curvature="0" /><path
         d="m 296.789,210.699 h 4.481 v -10.121 c 1.679,1.481 3.64,2.242 5.882,2.242 2.84,0 5.239,-1 7.278,-3.039 2.039,-2.043 3.039,-4.441 3.039,-7.281 0,-2.84 -1,-5.238 -3.039,-7.281 -2.039,-2.039 -4.438,-3.039 -7.278,-3.039 -2.363,0 -4.402,0.761 -6.121,2.32 v -2 h -4.242 z m 14.563,-22.398 c 1.117,1.16 1.679,2.558 1.679,4.199 0,1.641 -0.562,3.039 -1.679,4.199 -1.161,1.16 -2.563,1.723 -4.2,1.723 -1.64,0 -3.043,-0.563 -4.16,-1.723 -1.16,-1.16 -1.722,-2.558 -1.722,-4.199 0,-1.641 0.562,-3.039 1.722,-4.199 1.117,-1.16 2.52,-1.723 4.16,-1.723 1.637,0 3.039,0.563 4.2,1.723 z"
         style="fill:#ffffff;fill-opacity:1;fill-rule:nonzero;stroke:none"
         id="path44"
         inkscape:connector-curvature="0" /><path
         d="m 328.828,182.219 c -2.84,0 -5.203,1 -7.16,2.961 -1.961,2 -2.961,4.441 -2.961,7.281 0,3 1,5.437 2.961,7.398 1.957,1.961 4.437,2.961 7.398,2.961 3,0 5.68,-0.922 8.082,-2.8 l -1.839,-3.2 c -2,1.239 -3.961,1.879 -5.844,1.879 -2.918,0 -5.317,-1.758 -5.918,-4.64 h 14.359 c 0.082,-0.68 0.121,-1.321 0.121,-1.918 0,-2.922 -0.8,-5.321 -2.441,-7.161 -1.641,-1.839 -3.879,-2.761 -6.758,-2.761 z m -0.16,3.922 c 2.84,0 4.719,1.879 4.84,4.558 h -10 c 0.039,-1.16 0.597,-2.199 1.68,-3.16 1.039,-0.918 2.199,-1.398 3.48,-1.398 z"
         style="fill:#ffffff;fill-opacity:1;fill-rule:nonzero;stroke:none"
         id="path46"
         inkscape:connector-curvature="0" /><path
         d="m 360.855,202.5 c 1.637,-0.039 3.079,-0.68 4.239,-1.84 1.16,-1.16 1.719,-2.558 1.719,-4.199 0,-2.121 -1.321,-4.039 -3.399,-4.801 1.441,-0.64 2.281,-2.082 2.281,-3.801 0,-1.48 -0.523,-2.718 -1.562,-3.8 -1.078,-1.039 -2.32,-1.559 -3.758,-1.559 h -10.562 v 20 z m -6.601,-16.281 h 4.918 c 2.762,-0.16 2.762,4.16 0,4.082 h -4.918 z m 0,7.922 h 5.519 c 1.602,0 2.68,1.078 2.68,2.32 0,1.277 -1.121,2.359 -2.719,2.359 h -5.48 z"
         style="fill:#ffffff;fill-opacity:1;fill-rule:nonzero;stroke:none"
         id="path48"
         inkscape:connector-curvature="0" /><path
         d="M 373.102,188.859 V 182.5 h -4.481 v 20 h 9.481 c 1.957,0 3.558,-0.68 4.878,-2 1.321,-1.32 1.961,-2.922 1.961,-4.801 0,-1.879 -0.64,-3.48 -1.961,-4.84 -1.32,-1.32 -2.96,-2 -4.878,-2 z M 386.82,202.5 h 4 v -20 h -4 z m -13.718,-4.441 v -4.758 h 5 c 1.398,0 2.398,1.078 2.398,2.398 0,1.281 -1,2.36 -2.398,2.36 z"
         style="fill:#ffffff;fill-opacity:1;fill-rule:nonzero;stroke:none"
         id="path50"
         inkscape:connector-curvature="0" /><path
         d="m 403.684,202.82 c 2.8,0 5.238,-1.039 7.281,-3.082 2.039,-2.039 3.039,-4.437 3.039,-7.199 0,-2.801 -1,-5.199 -2.961,-7.16 -2,-1.957 -4.32,-2.957 -7,-2.957 -2.84,0 -4.918,0.84 -6.32,2.476 v -0.679 c 0,-2.598 2.441,-4.797 5.48,-5.481 l 8.199,-1.84 V 172.5 l -8.078,1.879 c -2.922,0.601 -5.32,1.84 -7.199,3.762 -1.883,1.961 -2.84,4.281 -2.84,7.039 v 6.519 c 0,3 0.957,5.602 2.918,7.801 1.922,2.199 4.402,3.32 7.481,3.32 z m -4.161,-6.16 c -1.16,-1.16 -1.718,-2.558 -1.718,-4.121 0,-1.641 0.558,-3.039 1.718,-4.117 1.122,-1.082 2.52,-1.641 4.161,-1.641 1.64,0 3.039,0.559 4.199,1.641 1.121,1.078 1.68,2.476 1.68,4.117 0,1.563 -0.559,2.961 -1.719,4.121 -1.16,1.16 -2.52,1.762 -4.16,1.762 -1.641,0 -3,-0.602 -4.161,-1.762 z"
         style="fill:#ffffff;fill-opacity:1;fill-rule:nonzero;stroke:none"
         id="path52"
         inkscape:connector-curvature="0" /><path
         d="m 415.789,192.461 c 0,2.879 1,5.32 3.043,7.32 2,2.039 4.438,3.039 7.32,3.039 2.84,0 5.278,-1 7.278,-3.039 2,-2 3,-4.441 3,-7.32 0,-2.84 -1,-5.281 -3,-7.281 -2,-2 -4.438,-3 -7.278,-3 -2.882,0 -5.32,1 -7.32,3 -2.043,2 -3.043,4.441 -3.043,7.281 z m 6.203,-4.121 c 1.117,-1.121 2.52,-1.68 4.16,-1.68 1.598,0 2.957,0.559 4.118,1.68 1.121,1.121 1.679,2.48 1.679,4.121 0,1.641 -0.558,3 -1.679,4.117 -1.161,1.16 -2.52,1.723 -4.118,1.723 -1.64,0 -3.043,-0.563 -4.16,-1.723 -1.16,-1.117 -1.722,-2.476 -1.722,-4.117 0,-1.641 0.562,-3 1.722,-4.121 z"
         style="fill:#ffffff;fill-opacity:1;fill-rule:nonzero;stroke:none"
         id="path54"
         inkscape:connector-curvature="0" /><path
         d="m 438.199,210.699 h 4.481 v -10.121 c 1.679,1.481 3.64,2.242 5.879,2.242 2.839,0 5.242,-1 7.281,-3.039 2.039,-2.043 3.039,-4.441 3.039,-7.281 0,-2.84 -1,-5.238 -3.039,-7.281 -2.039,-2.039 -4.442,-3.039 -7.281,-3.039 -2.36,0 -4.399,0.761 -6.118,2.32 v -2 h -4.242 z m 14.563,-22.398 c 1.117,1.16 1.679,2.558 1.679,4.199 0,1.641 -0.562,3.039 -1.679,4.199 -1.16,1.16 -2.563,1.723 -4.203,1.723 -1.641,0 -3.039,-0.563 -4.161,-1.723 -1.16,-1.16 -1.718,-2.558 -1.718,-4.199 0,-1.641 0.558,-3.039 1.718,-4.199 1.122,-1.16 2.52,-1.723 4.161,-1.723 1.64,0 3.043,0.563 4.203,1.723 z"
         style="fill:#ffffff;fill-opacity:1;fill-rule:nonzero;stroke:none"
         id="path56"
         inkscape:connector-curvature="0" /><path
         d="m 470.395,182.18 c -2.84,0 -5.239,1 -7.278,3.039 -2.043,2.043 -3.043,4.441 -3.043,7.281 0,2.84 1,5.238 3.043,7.281 2.039,2.039 4.438,3.039 7.278,3.039 2.441,0 4.523,-0.8 6.242,-2.359 v 2.039 h 4.121 v -20 h -4.121 v 2.078 c -1.719,-1.598 -3.801,-2.398 -6.242,-2.398 z m 4.203,6.121 c 1.117,1.16 1.679,2.558 1.679,4.199 0,1.641 -0.562,3.039 -1.679,4.199 -1.16,1.16 -2.563,1.723 -4.203,1.723 -1.637,0 -3.04,-0.563 -4.161,-1.723 -1.16,-1.16 -1.718,-2.558 -1.718,-4.199 0,-1.641 0.558,-3.039 1.718,-4.199 1.121,-1.16 2.524,-1.723 4.161,-1.723 1.64,0 3.043,0.563 4.203,1.723 z"
         style="fill:#ffffff;fill-opacity:1;fill-rule:nonzero;stroke:none"
         id="path58"
         inkscape:connector-curvature="0" /><path
         d="m 414.117,120.781 c 0.641,0.574 1.41,0.895 2.371,0.895 1.727,0 3.008,-1.344 3.008,-3.071 0,-1.73 -1.41,-3.265 -3.008,-3.265 -3.011,0 -4.289,3.648 -2.371,5.441 z"
         style="fill:#ffffff;fill-opacity:1;fill-rule:nonzero;stroke:none"
         id="path60"
         inkscape:connector-curvature="0" /><path
         d="m 424.363,134.539 h 7.168 v -16.191 c 2.688,2.367 5.824,3.586 9.407,3.586 4.546,0 8.386,-1.602 11.648,-4.868 3.266,-3.261 4.867,-7.101 4.867,-11.644 0,-4.547 -1.601,-8.387 -4.867,-11.649 -3.262,-3.265 -7.102,-4.867 -11.648,-4.867 -3.774,0 -7.04,1.219 -9.79,3.715 v -3.199 h -6.785 z m 23.297,-35.84 c 1.793,1.856 2.688,4.098 2.688,6.723 0,2.621 -0.895,4.863 -2.688,6.719 -1.855,1.855 -4.097,2.75 -6.722,2.75 -2.622,0 -4.864,-0.895 -6.653,-2.75 -1.859,-1.856 -2.754,-4.098 -2.754,-6.719 0,-2.625 0.895,-4.867 2.754,-6.723 1.789,-1.855 4.031,-2.75 6.653,-2.75 2.625,0 4.867,0.895 6.722,2.75 z"
         style="fill:#ffffff;fill-opacity:1;fill-rule:nonzero;stroke:none"
         id="path62"
         inkscape:connector-curvature="0" /><path
         d="m 471.758,134.668 15.617,-45.246 h -7.68 l -6.273,20.351 -6.399,-20.351 h -7.679 l 10.304,29.437 -5.57,15.809 z"
         style="fill:#ffffff;fill-opacity:1;fill-rule:nonzero;stroke:none"
         id="path64"
         inkscape:connector-curvature="0" /></g></g></svg>